<svg width="335" height="49" viewBox="0 0 335 49" fill="none" xmlns="http://www.w3.org/2000/svg">
<path d="M45.3539 44.9062C45.3539 45.4896 45.2497 46.0312 45.0414 46.5312C44.8331 47.0312 44.5414 47.4688 44.1664 47.8438C43.8122 48.1979 43.3852 48.4792 42.8852 48.6875C42.3852 48.8958 41.8435 49 41.2602 49H11.9477C11.1977 49 10.3852 48.9167 9.51016 48.75C8.656 48.5625 7.80183 48.2812 6.94766 47.9062C6.11433 47.5312 5.31225 47.0521 4.54141 46.4688C3.77058 45.8646 3.08308 45.1458 2.47891 44.3125C1.89558 43.4583 1.42683 42.4792 1.07266 41.375C0.718496 40.25 0.541412 38.9896 0.541412 37.5938V15.5938C0.541412 14.8438 0.624746 14.0417 0.791412 13.1875C0.978912 12.3125 1.26016 11.4583 1.63516 10.625C2.01016 9.77083 2.49975 8.95833 3.10391 8.1875C3.70808 7.41667 4.42683 6.73958 5.26016 6.15625C6.11433 5.55208 7.0935 5.07292 8.19766 4.71875C9.30183 4.36458 10.5518 4.1875 11.9477 4.1875H44.9789V12.3125H11.9477C10.8852 12.3125 10.0727 12.5938 9.51016 13.1562C8.94766 13.7188 8.66641 14.5521 8.66641 15.6562V37.5938C8.66641 38.6354 8.94766 39.4479 9.51016 40.0312C10.0935 40.5938 10.906 40.875 11.9477 40.875H37.2289V30.6875H15.6039V22.5H41.2602C41.8435 22.5 42.3852 22.6146 42.8852 22.8438C43.3852 23.0521 43.8122 23.3438 44.1664 23.7188C44.5414 24.0938 44.8331 24.5312 45.0414 25.0312C45.2497 25.5104 45.3539 26.0312 45.3539 26.5938V44.9062ZM100.591 37.8125C100.591 38.9375 100.393 40.1562 99.9977 41.4688C99.6018 42.7604 98.956 43.9688 98.0602 45.0938C97.1852 46.1979 96.0289 47.125 94.5914 47.875C93.1747 48.625 91.4456 49 89.4039 49H74.7477C73.6227 49 72.4039 48.8021 71.0914 48.4062C69.7997 48.0104 68.5914 47.375 67.4664 46.5C66.3622 45.6042 65.4352 44.4479 64.6852 43.0312C63.9352 41.5938 63.5602 39.8542 63.5602 37.8125C63.5602 36.6875 63.7581 35.4688 64.1539 34.1562C64.5497 32.8438 65.1852 31.6354 66.0602 30.5312C66.956 29.4062 68.1122 28.4688 69.5289 27.7188C70.9664 26.9688 72.706 26.5938 74.7477 26.5938H89.4039V34.3438H74.7477C73.6435 34.3438 72.7893 34.6875 72.1852 35.375C71.581 36.0417 71.2789 36.875 71.2789 37.875C71.2789 38.9375 71.6227 39.7708 72.3102 40.375C73.0185 40.9583 73.8518 41.25 74.8102 41.25H89.4039C90.5081 41.25 91.3622 40.9167 91.9664 40.25C92.5706 39.5833 92.8727 38.75 92.8727 37.75V26.4062C92.8727 25.3438 92.5393 24.5 91.8727 23.875C91.2268 23.25 90.4039 22.9375 89.4039 22.9375H71.5602V15.2188H89.4039C90.5289 15.2188 91.7372 15.4167 93.0289 15.8125C94.3414 16.2083 95.5497 16.8542 96.6539 17.75C97.7789 18.625 98.7164 19.7812 99.4664 21.2188C100.216 22.6354 100.591 24.3646 100.591 26.4062V37.8125ZM135.173 49H131.548C130.381 49 129.131 48.8021 127.798 48.4062C126.485 48.0104 125.256 47.3646 124.11 46.4688C122.964 45.5521 122.016 44.375 121.266 42.9375C120.516 41.4792 120.141 39.6979 120.141 37.5938V0.9375H128.266V37.5938C128.266 38.5938 128.579 39.3958 129.204 40C129.829 40.5833 130.61 40.875 131.548 40.875H135.173V49ZM168.035 49H164.41C163.243 49 161.993 48.8021 160.66 48.4062C159.348 48.0104 158.118 47.3646 156.973 46.4688C155.827 45.5521 154.879 44.375 154.129 42.9375C153.379 41.4792 153.004 39.6979 153.004 37.5938V0.9375H161.129V37.5938C161.129 38.5938 161.441 39.3958 162.066 40C162.691 40.5833 163.473 40.875 164.41 40.875H168.035V49ZM222.398 26.4062C222.398 27.5312 222.2 28.75 221.804 30.0625C221.408 31.3542 220.762 32.5625 219.866 33.6875C218.991 34.7917 217.835 35.7188 216.398 36.4688C214.981 37.2188 213.252 37.5938 211.21 37.5938H196.554V29.875H211.21C212.314 29.875 213.168 29.5417 213.773 28.875C214.377 28.1875 214.679 27.3438 214.679 26.3438C214.679 25.2812 214.335 24.4479 213.648 23.8438C212.981 23.2396 212.168 22.9375 211.21 22.9375H196.554C195.45 22.9375 194.596 23.2812 193.991 23.9688C193.387 24.6354 193.085 25.4688 193.085 26.4688V37.8125C193.085 38.8958 193.418 39.7396 194.085 40.3438C194.773 40.9479 195.616 41.25 196.616 41.25H211.21V49H196.554C195.429 49 194.21 48.8021 192.898 48.4062C191.606 48.0104 190.398 47.375 189.273 46.5C188.168 45.6042 187.241 44.4479 186.491 43.0312C185.741 41.5938 185.366 39.8542 185.366 37.8125V26.4062C185.366 25.2812 185.564 24.0729 185.96 22.7812C186.356 21.4688 186.991 20.2604 187.866 19.1562C188.762 18.0312 189.918 17.0938 191.335 16.3438C192.773 15.5938 194.512 15.2188 196.554 15.2188H211.21C212.335 15.2188 213.543 15.4167 214.835 15.8125C216.148 16.2083 217.356 16.8542 218.46 17.75C219.585 18.625 220.523 19.7812 221.273 21.2188C222.023 22.6354 222.398 24.3646 222.398 26.4062ZM246.073 44.9062C246.073 45.4688 245.958 46 245.729 46.5C245.521 46.9792 245.229 47.4062 244.854 47.7812C244.5 48.1354 244.073 48.4167 243.573 48.625C243.093 48.8333 242.583 48.9375 242.041 48.9375C241.479 48.9375 240.948 48.8333 240.448 48.625C239.968 48.4167 239.541 48.1354 239.166 47.7812C238.812 47.4062 238.531 46.9792 238.323 46.5C238.114 46 238.01 45.4688 238.01 44.9062C238.01 44.3646 238.114 43.8542 238.323 43.375C238.531 42.875 238.812 42.4479 239.166 42.0938C239.541 41.7188 239.968 41.4271 240.448 41.2188C240.948 40.9896 241.479 40.875 242.041 40.875C242.583 40.875 243.093 40.9896 243.573 41.2188C244.073 41.4271 244.5 41.7188 244.854 42.0938C245.229 42.4479 245.521 42.875 245.729 43.375C245.958 43.8542 246.073 44.3646 246.073 44.9062ZM282.263 32.9648H270.837C270.147 32.9648 269.627 33.1406 269.275 33.4922C268.923 33.8307 268.748 34.332 268.748 34.9961V49H263.67V34.9961C263.67 34.1237 263.78 33.3424 264.002 32.6523C264.223 31.9622 264.516 31.3568 264.88 30.8359C265.258 30.3021 265.688 29.8529 266.17 29.4883C266.651 29.1107 267.153 28.8047 267.673 28.5703C268.207 28.3359 268.741 28.1667 269.275 28.0625C269.822 27.9453 270.33 27.8867 270.798 27.8867H282.263V32.9648ZM298.779 23.5508H293.701V18.9609H298.779V23.5508ZM298.779 49H293.701V27.8867H298.779V49ZM334.63 41.8711C334.63 42.7435 334.52 43.5312 334.298 44.2344C334.077 44.9245 333.784 45.5365 333.42 46.0703C333.055 46.5911 332.632 47.0404 332.15 47.418C331.668 47.7826 331.16 48.082 330.627 48.3164C330.106 48.5508 329.572 48.7266 329.025 48.8438C328.491 48.9479 327.983 49 327.502 49H318.341C317.638 49 316.87 48.8763 316.037 48.6289C315.203 48.3815 314.429 47.9779 313.712 47.418C313.009 46.8451 312.417 46.1094 311.935 45.2109C311.466 44.2995 311.232 43.1862 311.232 41.8711V34.9961C311.232 33.694 311.466 32.5938 311.935 31.6953C312.417 30.7839 313.009 30.0482 313.712 29.4883C314.429 28.9154 315.203 28.5052 316.037 28.2578C316.87 28.0104 317.638 27.8867 318.341 27.8867H327.502C328.804 27.8867 329.91 28.1211 330.822 28.5898C331.733 29.0586 332.469 29.651 333.029 30.3672C333.589 31.0703 333.992 31.8385 334.24 32.6719C334.5 33.5052 334.63 34.2799 334.63 34.9961V41.8711ZM329.552 35.0352C329.552 34.332 329.377 33.8112 329.025 33.4727C328.673 33.1341 328.166 32.9648 327.502 32.9648H318.38C317.703 32.9648 317.189 33.1406 316.837 33.4922C316.486 33.8307 316.31 34.332 316.31 34.9961V41.8711C316.31 42.5352 316.486 43.043 316.837 43.3945C317.189 43.7461 317.703 43.9219 318.38 43.9219H327.502C328.192 43.9219 328.706 43.7461 329.045 43.3945C329.383 43.043 329.552 42.5352 329.552 41.8711V35.0352Z" fill="black"/>
</svg>
